<svg width="230" height="67" viewBox="0 0 230 67" fill="none" xmlns="http://www.w3.org/2000/svg">
<path d="M76.9643 27V5.72H87.3003C89.9147 5.72 92.0325 6.46987 93.6539 7.9696C95.2955 9.44907 96.1163 11.2832 96.1163 13.472C96.1163 15.6608 95.2955 17.5051 93.6539 19.0048C92.0325 20.4843 89.9147 21.224 87.3003 21.224H82.5883V27H76.9643ZM82.5883 16.056H87.1483C88.2021 16.056 88.9925 15.8229 89.5195 15.3568C90.0667 14.8907 90.3403 14.2624 90.3403 13.472C90.3403 12.6816 90.0667 12.0533 89.5195 11.5872C88.9925 11.1211 88.2021 10.888 87.1483 10.888H82.5883V16.056ZM95.8147 27L101.591 5.72H111.927L117.703 27H111.927L110.863 22.744H102.655L101.591 27H95.8147ZM103.871 17.88H109.647L107.823 10.888H105.695L103.871 17.88ZM119.062 27V5.72H136.39V10.584H124.686V13.32H130.158C132.611 13.32 134.536 13.9584 135.934 15.2352C137.353 16.4917 138.062 18.1333 138.062 20.16C138.062 22.1867 137.353 23.8384 135.934 25.1152C134.536 26.3717 132.611 27 130.158 27H119.062ZM124.686 22.136H129.854C130.604 22.136 131.192 21.9435 131.618 21.5584C132.063 21.1733 132.286 20.7072 132.286 20.16C132.286 19.6128 132.063 19.1467 131.618 18.7616C131.192 18.3765 130.604 18.184 129.854 18.184H124.686V22.136ZM142.766 24.3248C140.537 22.1157 139.422 19.4608 139.422 16.36C139.422 13.2592 140.537 10.6144 142.766 8.4256C145.016 6.21653 147.853 5.112 151.278 5.112C154.703 5.112 157.53 6.21653 159.76 8.4256C162.009 10.6144 163.134 13.2592 163.134 16.36C163.134 19.4608 162.009 22.1157 159.76 24.3248C157.53 26.5136 154.703 27.608 151.278 27.608C147.853 27.608 145.016 26.5136 142.766 24.3248ZM146.992 11.952C145.897 13.0667 145.35 14.536 145.35 16.36C145.35 18.184 145.897 19.6533 146.992 20.768C148.086 21.8827 149.515 22.44 151.278 22.44C153.041 22.44 154.47 21.8827 155.564 20.768C156.659 19.6533 157.206 18.184 157.206 16.36C157.206 14.536 156.659 13.0667 155.564 11.952C154.47 10.8373 153.041 10.28 151.278 10.28C149.515 10.28 148.086 10.8373 146.992 11.952ZM165.098 13.016V5.72H170.722V12.56C170.722 13.5733 171.016 14.3637 171.604 14.9312C172.212 15.4784 173.083 15.752 174.218 15.752C175.353 15.752 176.407 15.5291 177.38 15.0832C177.866 14.84 178.231 14.6069 178.474 14.384V5.72H184.098V27H178.474V19.4C178.008 19.7243 177.552 19.9776 177.106 20.16C175.89 20.6667 174.522 20.92 173.002 20.92C170.57 20.92 168.645 20.2107 167.226 18.792C165.807 17.3733 165.098 15.448 165.098 13.016ZM185.473 27L191.249 5.72H201.585L207.361 27H201.585L200.521 22.744H192.313L191.249 27H185.473ZM193.529 17.88H199.305L197.481 10.888H195.353L193.529 17.88ZM208.113 13.168C208.113 11.0603 208.893 9.29707 210.454 7.8784C212.035 6.43947 214.092 5.72 216.625 5.72H227.265V27H221.641V20.616H217.689L214.041 27H207.961L212.369 19.4C209.532 17.9813 208.113 15.904 208.113 13.168ZM214.679 11.5568C214.152 12.0027 213.889 12.5397 213.889 13.168C213.889 13.7963 214.152 14.3333 214.679 14.7792C215.206 15.2251 215.905 15.448 216.777 15.448H221.641V10.888H216.777C215.905 10.888 215.206 11.1109 214.679 11.5568ZM79.3659 55.416C77.1568 53.2677 76.0523 50.5824 76.0523 47.36C76.0523 44.1376 77.1568 41.4624 79.3659 39.3344C81.5952 37.1861 84.4427 36.112 87.9083 36.112C91.7387 36.112 94.7483 37.5104 96.9371 40.3072C97.9099 41.584 98.5989 42.9723 99.0043 44.472H93.2283C92.9243 43.8437 92.5493 43.3168 92.1035 42.8912C91.0293 41.8171 89.6309 41.28 87.9083 41.28C86.1451 41.28 84.7163 41.8373 83.6219 42.952C82.5275 44.0667 81.9803 45.536 81.9803 47.36C81.9803 49.184 82.5275 50.6533 83.6219 51.768C84.7163 52.8827 86.1451 53.44 87.9083 53.44C89.8133 53.44 91.2928 52.832 92.3467 51.616C92.8331 51.0688 93.1776 50.4608 93.3803 49.792H99.1563C98.7104 51.4336 97.9909 52.9029 96.9979 54.2C94.8293 57.1387 91.7995 58.608 87.9083 58.608C84.4427 58.608 81.5952 57.544 79.3659 55.416ZM101.442 58V36.72H111.778C114.393 36.72 116.51 37.4699 118.132 38.9696C119.773 40.4491 120.594 42.2832 120.594 44.472C120.594 46.6608 119.773 48.5051 118.132 50.0048C116.51 51.4843 114.393 52.224 111.778 52.224H107.066V58H101.442ZM107.066 47.056H111.626C112.68 47.056 113.47 46.8229 113.997 46.3568C114.545 45.8907 114.818 45.2624 114.818 44.472C114.818 43.6816 114.545 43.0533 113.997 42.5872C113.47 42.1211 112.68 41.888 111.626 41.888H107.066V47.056ZM122.862 58V36.72H139.278V41.888H128.486V45.08H137.15V49.64H128.486V52.832H139.278V58H122.862ZM140.024 61.648V52.832H142.456L146.712 36.72H157.2L161.456 52.832H163.888V61.648H158.568V58H145.344V61.648H140.024ZM147.776 52.832H156.136L153.248 41.888H150.664L147.776 52.832ZM163.43 58L169.206 36.72H179.542L185.318 58H179.542L178.478 53.744H170.27L169.206 58H163.43ZM171.486 48.88H177.262L175.438 41.888H173.31L171.486 48.88Z" fill="black"/>
<circle cx="30" cy="32.7168" r="29" stroke="#3B4DEB" stroke-width="2"/>
<path d="M44.7958 48.6359L44.7491 48.6701L44.7114 48.714L33.6805 61.5652L24.6883 39.7528L24.524 39.3541L24.1055 39.4581L3.50842 44.5778L8.67404 28.5361L8.69179 28.481L8.69647 28.4233L10.0956 11.1885L27.387 11.143L27.4449 11.1429L27.5013 11.1295L44.3741 7.12261L58.799 38.4056L44.7958 48.6359Z" stroke="#3B4DEB"/>
<path d="M17.7261 59.9434L23.7261 39.4434M23.7261 39.4434L40.7261 40.4434M23.7261 39.4434L39.7261 22.9434M23.7261 39.4434L17.7261 20.4434M23.7261 39.4434L8.72607 27.9434L17.7261 20.4434M40.7261 40.4434L43.7261 48.9434M40.7261 40.4434L39.7261 22.9434M40.7261 40.4434L58.7261 37.9434L39.7261 22.9434M40.7261 40.4434L33 61.5M39.7261 22.9434L43.7261 6.94336M39.7261 22.9434L28.2261 10.9434L17.7261 20.4434M39.7261 22.9434L17.7261 20.4434M17.7261 20.4434L9.72607 11.9434" stroke="#3B4DEB" stroke-width="1.5"/>
<circle cx="10" cy="11.7168" r="2.5" fill="white" stroke="#3B4DEB"/>
<circle cx="44" cy="6.7168" r="2.5" fill="white" stroke="#3B4DEB"/>
<circle cx="59" cy="37.7168" r="2.5" fill="white" stroke="#3B4DEB"/>
<circle cx="33" cy="61.7168" r="2.5" fill="white" stroke="#3B4DEB"/>
<circle cx="3" cy="44.7168" r="2.5" fill="white" stroke="#3B4DEB"/>
<circle cx="9" cy="27.7168" r="1.5" fill="white" stroke="#3B4DEB"/>
<circle cx="18" cy="59" r="1.5" fill="white" stroke="#3B4DEB"/>
<circle cx="39.7261" cy="23.4414" r="3.5" fill="white" stroke="#3B4DEB"/>
<circle cx="17.7261" cy="20.4414" r="1.5" fill="white" stroke="#3B4DEB"/>
<circle cx="40.7261" cy="40.4414" r="1.5" fill="white" stroke="#3B4DEB"/>
<circle cx="23.7261" cy="39.4414" r="3.5" fill="white" stroke="#3B4DEB"/>
<circle cx="28" cy="10.7168" r="1.5" fill="white" stroke="#3B4DEB"/>
<circle cx="44" cy="48.7168" r="1.5" fill="white" stroke="#3B4DEB"/>
</svg>
